<svg width="0" height="0" class="hidden">
  <symbol fill="none" xmlns="http://www.w3.org/2000/svg" viewBox="0 0 54 54" id="email">
    <rect width="54" height="54" rx="27" fill="#FF6E40"></rect>
    <path d="M36.7057 32.0146C36.7057 32.4402 36.586 32.8347 36.3943 33.1818L30.2652 26.3242L36.3278 21.0199C36.5636 21.3942 36.7057 21.8338 36.7057 22.3089V32.0146ZM26.9998 27.5693L35.4358 20.1881C35.0896 19.9985 34.6998 19.8823 34.2793 19.8823H19.7204C19.2994 19.8823 18.9094 19.9985 18.5646 20.1881L26.9998 27.5693ZM29.3517 27.1228L27.399 28.8324C27.2848 28.9319 27.1426 28.9816 26.9998 28.9816C26.857 28.9816 26.7148 28.9319 26.6006 28.8324L24.6474 27.1227L18.4408 34.0679C18.8128 34.3013 19.2488 34.4411 19.7204 34.4411H34.2793C34.7507 34.4411 35.1869 34.3013 35.5588 34.0679L29.3517 27.1228ZM17.6719 21.0199C17.4361 21.3941 17.2939 21.8338 17.2939 22.3089V32.0146C17.2939 32.4402 17.4131 32.8347 17.6056 33.1818L23.7339 26.323L17.6719 21.0199Z" fill="#251D1A"></path>
  </symbol>
  <symbol fill="none" xmlns="http://www.w3.org/2000/svg" viewBox="0 0 54 54" id="location">
    <rect width="54" height="54" rx="27" fill="#FF6E40"></rect>
    <path d="M34.2195 21.4756C34.1412 21.1821 33.9822 20.8694 33.8645 20.5956C32.4568 17.2124 29.3809 16 26.8973 16C23.5726 16 19.9108 18.2294 19.4219 22.8247V23.7635C19.4219 23.8027 19.4354 24.1547 19.4546 24.3307C19.7286 26.5207 21.4567 28.8482 22.7473 31.0382C24.1358 33.3846 25.5766 35.6928 27.004 37.9999C27.8842 36.4943 28.7612 34.9689 29.6213 33.5022C29.8557 33.0718 30.1278 32.6417 30.3625 32.2308C30.5189 31.9573 30.8177 31.6837 30.9542 31.4292C32.3427 28.8871 34.5775 26.3254 34.5775 23.8027V22.7663C34.5776 22.4928 34.2386 21.5346 34.2195 21.4756ZM26.9582 26.1886C25.9809 26.1886 24.9112 25.6999 24.3831 24.3503C24.3045 24.1355 24.3108 23.705 24.3108 23.6655V23.0593C24.3108 21.3389 25.7716 20.5565 27.0425 20.5565C28.607 20.5565 29.8171 21.8082 29.8171 23.3728C29.8171 24.9373 28.5228 26.1886 26.9582 26.1886Z" fill="#251D1A"></path>
  </symbol>
  <symbol fill='none' xmlns="http://www.w3.org/2000/svg" viewBox="0 0 54 54" id="logo">
    <rect width="54" height="54" rx="27" fill="#FF6E40"></rect>
    <g transform="translate(0.000000,54.000000) scale(0.100000,-0.100000)" fill="#251D1A" stroke="none">
      <path d="M191 386 c-25 -14 -50 -51 -51 -76 0 -8 -9 -21 -20 -28 -23 -14 -27 -72 -9 -119 l10 -28 18 53 c10 29 20 54 22 55 2 1 52 1 110 -1 102 -4 107 -5 118 -28 6 -14 11 -36 11 -49 0 -35 16 -31 29 6 15 42 14 92 -1 107 -10 10 -10 17 0 33 15 23 8 32 -49 67 -42 26 -148 30 -188 8z" fill="#251D1A"></path>
    </g>
  </symbol>
  <symbol fill="none" xmlns="http://www.w3.org/2000/svg" viewBox="0 0 54 54" id="phone">
    <rect width="54" height="54" rx="27" fill="#FF6E40"></rect>
    <path d="M34.5024 29.7629C33.7073 28.978 32.7147 28.978 31.9247 29.7629C31.322 30.3605 30.7194 30.9581 30.1269 31.5659C29.9648 31.733 29.8281 31.7684 29.6306 31.657C29.2406 31.4443 28.8253 31.2721 28.4506 31.0392C26.7034 29.9402 25.2398 28.5273 23.9433 26.9371C23.3001 26.147 22.7279 25.3013 22.3278 24.3492C22.2468 24.1567 22.262 24.0301 22.4189 23.8731C23.0216 23.2907 23.6091 22.6931 24.2016 22.0956C25.0271 21.265 25.0271 20.2927 24.1965 19.457C23.7255 18.981 23.2546 18.5151 22.7836 18.039C22.2974 17.5529 21.8163 17.0616 21.3251 16.5805C20.53 15.8057 19.5373 15.8057 18.7473 16.5856C18.1396 17.1832 17.5572 17.7959 16.9393 18.3834C16.3671 18.9253 16.0784 19.5887 16.0176 20.3636C15.9214 21.6246 16.2303 22.8147 16.6659 23.9744C17.5572 26.3749 18.9144 28.507 20.5603 30.4618C22.7836 33.1054 25.4373 35.197 28.5417 36.7061C29.9395 37.3848 31.3879 37.9064 32.9629 37.9925C34.0466 38.0533 34.9886 37.7798 35.7432 36.934C36.2598 36.3567 36.8422 35.83 37.3891 35.278C38.1994 34.4576 38.2045 33.465 37.3992 32.6547C36.437 31.6874 35.4697 30.7252 34.5024 29.7629Z" fill="#251D1A"></path>
  </symbol>
  <symbol fill="none" xmlns="http://www.w3.org/2000/svg" viewBox="0 0 54 54" id="time">
    <rect width="54" height="54" rx="27" fill="#FF6E40"></rect>
    <path fill-rule="evenodd" clip-rule="evenodd" d="M27.0003 37.0832C21.4315 37.0832 16.917 32.5687 16.917 26.9998C16.917 21.431 21.4315 16.9165 27.0003 16.9165C32.5692 16.9165 37.0837 21.431 37.0837 26.9998C37.0837 32.5687 32.5692 37.0832 27.0003 37.0832ZM27.9173 26.0833H31.584V27.9167H26.084V20.5H27.9173V26.0833Z" fill="#251D1A"></path>
  </symbol>
	<symbol fill="none" xmlns="http://www.w3.org/2000/svg" width="19" height="14" viewBox="0 0 19 14" id="check">
		<path fill-rule="evenodd" clip-rule="evenodd" d="M6.49839 10.5013L16.6361 0.363647L18.1789 1.90643L6.49839 13.5869L0.272461 7.36097L1.81524 5.81819L6.49839 10.5013Z" fill="#4FE18A" />
	</symbol>
	<symbol fill="none" xmlns="http://www.w3.org/2000/svg" width="8" height="7" viewBox="0 0 8 7" id="check_sm">
		<path fill-rule="evenodd" clip-rule="evenodd" d="M2.78154 4.93344L7.31074 0.333496L8 1.03353L2.78154 6.3335L0 3.5085L0.689263 2.80847L2.78154 4.93344Z" fill="#F7F7F7" />
	</symbol>
	<symbol fill="none" xmlns="http://www.w3.org/2000/svg" width="20" height="20" viewBox="0 0 20 20" id="refresh">
		<path fill-rule="evenodd" clip-rule="evenodd" d="M10 2C12.3936 2 14.4465 3.0787 15.8069 5H12V7H19V0H17V3.27035C15.2749 1.18251 12.8042 0 10 0C4.47715 0 0 4.47715 0 10H2C2 5.58172 5.58172 2 10 2ZM10 18C7.60638 18 5.55354 16.9213 4.19306 15H8V13H1V20H3V16.7297C4.72511 18.8175 7.19577 20 10 20C15.5228 20 20 15.5228 20 10H18C18 14.4183 14.4183 18 10 18Z" fill="white" />
	</symbol>
	<symbol fill="none" xmlns="http://www.w3.org/2000/svg" width="24" height="24" viewBox="0 0 24 24" id="arrow_right">
		<path fill-rule="evenodd" clip-rule="evenodd" d="M14.5856 12.0001L7.99985 18.5859C7.60932 18.9764 7.60932 19.6096 7.99985 20.0001C8.39037 20.3906 9.02354 20.3906 9.41406 20.0001L17.4141 12.0001L9.41406 4.00007C9.02354 3.60955 8.39037 3.60955 7.99985 4.00008C7.60932 4.3906 7.60932 5.02376 7.99985 5.41429L14.5856 12.0001Z" fill="#251D1A" />
	</symbol>
	<symbol fill="none" xmlns="http://www.w3.org/2000/svg" width="24" height="24" viewBox="0 0 24 24" id="arrow_left">
		<path fill-rule="evenodd" clip-rule="evenodd" d="M9.41436 12.0001L16.0002 18.5859C16.3907 18.9764 16.3907 19.6096 16.0002 20.0001C15.6096 20.3906 14.9765 20.3906 14.5859 20.0001L6.58594 12.0001L14.5859 4.00007C14.9765 3.60955 15.6096 3.60955 16.0002 4.00008C16.3907 4.3906 16.3907 5.02376 16.0002 5.41429L9.41436 12.0001Z" fill="#251D1A" />
	</symbol>
</svg>