<svg xmlns="http://www.w3.org/2000/svg" version="1.1" xmlns:xlink="http://www.w3.org/1999/xlink" xmlns:svgjs="http://svgjs.dev/svgjs" width="256px" height="256px"><svg xmlns="http://www.w3.org/2000/svg" version="1.1" width="256px" height="256px" style="shape-rendering:geometricPrecision; text-rendering:geometricPrecision; image-rendering:optimizeQuality; fill-rule:evenodd; clip-rule:evenodd" xmlns:xlink="http://www.w3.org/1999/xlink">
<g><path style="opacity:0.995" fill="#FF6E40" d="M 111.5,-0.5 C 122.167,-0.5 132.833,-0.5 143.5,-0.5C 197.548,8.7041 233.382,39.3708 251,91.5C 252.715,98.2585 254.215,104.925 255.5,111.5C 255.5,122.167 255.5,132.833 255.5,143.5C 246.296,197.548 215.629,233.382 163.5,251C 156.741,252.715 150.075,254.215 143.5,255.5C 132.833,255.5 122.167,255.5 111.5,255.5C 57.4517,246.296 21.6184,215.629 4,163.5C 2.28494,156.741 0.784944,150.075 -0.5,143.5C -0.5,132.833 -0.5,122.167 -0.5,111.5C 8.7041,57.4517 39.3708,21.6184 91.5,4C 98.2585,2.28494 104.925,0.784944 111.5,-0.5 Z"></path></g>
<g><path style="opacity:1" fill="#251D1A" d="M 116.5,64.5 C 118.527,64.3379 120.527,64.5045 122.5,65C 120.185,66.3675 120.185,67.2009 122.5,67.5C 130.763,65.7824 139.096,65.2824 147.5,66C 146.167,66.6667 144.833,67.3333 143.5,68C 155.369,67.7352 167.035,69.0685 178.5,72C 178.833,72.3333 179.167,72.6667 179.5,73C 176.139,73.0536 173.139,74.0536 170.5,76C 181.465,77.4824 190.798,82.1491 198.5,90C 197.5,90.3333 196.5,90.6667 195.5,91C 200.506,93.5013 205.173,96.5013 209.5,100C 202.676,104.311 198.009,110.311 195.5,118C 203.915,124.333 207.915,132.833 207.5,143.5C 206.489,159.387 202.989,174.72 197,189.5C 195.333,190.833 193.667,190.833 192,189.5C 191.762,181.791 191.096,174.124 190,166.5C 186.746,157.492 182.579,148.992 177.5,141C 154.865,142.278 132.198,142.612 109.5,142C 97.7363,140.726 86.4029,137.892 75.5,133.5C 76.0567,141.332 73.5567,147.998 68,153.5C 62.3856,165.184 60.2189,177.518 61.5,190.5C 59.8561,190.714 58.3561,190.38 57,189.5C 47.7248,171.132 44.3915,151.798 47,131.5C 51.016,122.642 57.8493,117.976 67.5,117.5C 66.4463,96.4303 75.113,80.9303 93.5,71C 100.995,67.7446 108.661,65.5779 116.5,64.5 Z"></path></g>
</svg><style>@media (prefers-color-scheme: light) { :root { filter: none; } }
@media (prefers-color-scheme: dark) { :root { filter: none; } }
</style></svg>